<mxfile host="app.diagrams.net" modified="2021-04-03T15:32:24.640Z" agent="5.0 (Windows NT 10.0; Win64; x64) AppleWebKit/537.36 (KHTML, like Gecko) Chrome/89.0.4389.114 Safari/537.36" etag="Q2WUcdQ5-8R4RXQ5T7j4" version="14.5.6" type="github">
  <diagram id="C1zk2GjAIqy5yiNyN8uk" name="Page-1">
    <mxGraphModel dx="868" dy="450" grid="1" gridSize="10" guides="1" tooltips="1" connect="1" arrows="1" fold="1" page="1" pageScale="1" pageWidth="827" pageHeight="1169" math="0" shadow="0">
      <root>
        <mxCell id="0" />
        <mxCell id="1" parent="0" />
        <mxCell id="jhMQIJePz_0eJn743-Vq-15" value="Restaurant Module" style="shape=rect;html=1;verticalAlign=top;fontStyle=1;whiteSpace=wrap;align=center;" vertex="1" parent="1">
          <mxGeometry x="465" y="10" width="340" height="450" as="geometry" />
        </mxCell>
        <mxCell id="jhMQIJePz_0eJn743-Vq-13" value="Registration" style="shape=rect;html=1;verticalAlign=top;fontStyle=1;whiteSpace=wrap;align=center;" vertex="1" parent="1">
          <mxGeometry x="20" y="10" width="190" height="180" as="geometry" />
        </mxCell>
        <mxCell id="jhMQIJePz_0eJn743-Vq-1" value="User" style="shape=umlActor;html=1;verticalLabelPosition=bottom;verticalAlign=top;align=center;" vertex="1" parent="1">
          <mxGeometry x="310" y="20" width="30" height="60" as="geometry" />
        </mxCell>
        <mxCell id="jhMQIJePz_0eJn743-Vq-6" value="Search Restaurant" style="ellipse;whiteSpace=wrap;html=1;" vertex="1" parent="1">
          <mxGeometry x="570" y="50" width="130" height="50" as="geometry" />
        </mxCell>
        <mxCell id="jhMQIJePz_0eJn743-Vq-8" value="View Menu" style="ellipse;whiteSpace=wrap;html=1;" vertex="1" parent="1">
          <mxGeometry x="570" y="120" width="130" height="50" as="geometry" />
        </mxCell>
        <mxCell id="jhMQIJePz_0eJn743-Vq-9" value="Select Items&amp;nbsp;" style="ellipse;whiteSpace=wrap;html=1;" vertex="1" parent="1">
          <mxGeometry x="572.5" y="190" width="130" height="40" as="geometry" />
        </mxCell>
        <mxCell id="jhMQIJePz_0eJn743-Vq-10" value="View Total Order Amount" style="ellipse;whiteSpace=wrap;html=1;" vertex="1" parent="1">
          <mxGeometry x="565" y="250" width="145" height="40" as="geometry" />
        </mxCell>
        <mxCell id="jhMQIJePz_0eJn743-Vq-12" value="Sign up" style="ellipse;whiteSpace=wrap;html=1;" vertex="1" parent="1">
          <mxGeometry x="59" y="120" width="110" height="60" as="geometry" />
        </mxCell>
        <mxCell id="jhMQIJePz_0eJn743-Vq-11" value="Login" style="ellipse;whiteSpace=wrap;html=1;" vertex="1" parent="1">
          <mxGeometry x="60" y="50" width="109" height="60" as="geometry" />
        </mxCell>
        <mxCell id="jhMQIJePz_0eJn743-Vq-16" value="Admin" style="shape=umlActor;html=1;verticalLabelPosition=bottom;verticalAlign=top;align=center;" vertex="1" parent="1">
          <mxGeometry x="310" y="230" width="30" height="60" as="geometry" />
        </mxCell>
        <mxCell id="jhMQIJePz_0eJn743-Vq-23" value="" style="edgeStyle=none;html=1;endArrow=none;verticalAlign=bottom;entryX=0.5;entryY=1;entryDx=0;entryDy=0;exitX=0.5;exitY=0.5;exitDx=0;exitDy=0;exitPerimeter=0;" edge="1" parent="1" source="jhMQIJePz_0eJn743-Vq-16" target="jhMQIJePz_0eJn743-Vq-12">
          <mxGeometry width="160" relative="1" as="geometry">
            <mxPoint x="330" y="230" as="sourcePoint" />
            <mxPoint x="490" y="230" as="targetPoint" />
          </mxGeometry>
        </mxCell>
        <mxCell id="jhMQIJePz_0eJn743-Vq-25" value="" style="edgeStyle=none;html=1;endArrow=none;verticalAlign=bottom;entryX=1;entryY=1;entryDx=0;entryDy=0;exitX=0.5;exitY=0.5;exitDx=0;exitDy=0;exitPerimeter=0;" edge="1" parent="1" source="jhMQIJePz_0eJn743-Vq-16" target="jhMQIJePz_0eJn743-Vq-11">
          <mxGeometry width="160" relative="1" as="geometry">
            <mxPoint x="330" y="230" as="sourcePoint" />
            <mxPoint x="490" y="230" as="targetPoint" />
          </mxGeometry>
        </mxCell>
        <mxCell id="jhMQIJePz_0eJn743-Vq-26" value="Add New Restaurant" style="ellipse;whiteSpace=wrap;html=1;" vertex="1" parent="1">
          <mxGeometry x="577.5" y="310" width="130" height="50" as="geometry" />
        </mxCell>
        <mxCell id="jhMQIJePz_0eJn743-Vq-27" value="Update Menu" style="ellipse;whiteSpace=wrap;html=1;" vertex="1" parent="1">
          <mxGeometry x="582.5" y="380" width="120" height="40" as="geometry" />
        </mxCell>
        <mxCell id="jhMQIJePz_0eJn743-Vq-28" value="" style="edgeStyle=none;html=1;endArrow=none;verticalAlign=bottom;entryX=0;entryY=0.5;entryDx=0;entryDy=0;exitX=0.5;exitY=0.5;exitDx=0;exitDy=0;exitPerimeter=0;" edge="1" parent="1" source="jhMQIJePz_0eJn743-Vq-1" target="jhMQIJePz_0eJn743-Vq-6">
          <mxGeometry width="160" relative="1" as="geometry">
            <mxPoint x="330" y="230" as="sourcePoint" />
            <mxPoint x="490" y="230" as="targetPoint" />
          </mxGeometry>
        </mxCell>
        <mxCell id="jhMQIJePz_0eJn743-Vq-29" value="" style="edgeStyle=none;html=1;endArrow=none;verticalAlign=bottom;exitX=0.5;exitY=0.5;exitDx=0;exitDy=0;exitPerimeter=0;" edge="1" parent="1" source="jhMQIJePz_0eJn743-Vq-1" target="jhMQIJePz_0eJn743-Vq-8">
          <mxGeometry width="160" relative="1" as="geometry">
            <mxPoint x="330" y="230" as="sourcePoint" />
            <mxPoint x="490" y="230" as="targetPoint" />
          </mxGeometry>
        </mxCell>
        <mxCell id="jhMQIJePz_0eJn743-Vq-31" value="" style="edgeStyle=none;html=1;endArrow=none;verticalAlign=bottom;entryX=0;entryY=0.5;entryDx=0;entryDy=0;exitX=0.5;exitY=0.5;exitDx=0;exitDy=0;exitPerimeter=0;" edge="1" parent="1" source="jhMQIJePz_0eJn743-Vq-1" target="jhMQIJePz_0eJn743-Vq-9">
          <mxGeometry width="160" relative="1" as="geometry">
            <mxPoint x="330" y="230" as="sourcePoint" />
            <mxPoint x="490" y="230" as="targetPoint" />
          </mxGeometry>
        </mxCell>
        <mxCell id="jhMQIJePz_0eJn743-Vq-33" value="" style="edgeStyle=none;html=1;endArrow=none;verticalAlign=bottom;entryX=0;entryY=0.5;entryDx=0;entryDy=0;exitX=0.5;exitY=0.5;exitDx=0;exitDy=0;exitPerimeter=0;" edge="1" parent="1" source="jhMQIJePz_0eJn743-Vq-16" target="jhMQIJePz_0eJn743-Vq-26">
          <mxGeometry width="160" relative="1" as="geometry">
            <mxPoint x="330" y="230" as="sourcePoint" />
            <mxPoint x="490" y="230" as="targetPoint" />
          </mxGeometry>
        </mxCell>
        <mxCell id="jhMQIJePz_0eJn743-Vq-34" value="" style="edgeStyle=none;html=1;endArrow=none;verticalAlign=bottom;entryX=0.054;entryY=0.325;entryDx=0;entryDy=0;entryPerimeter=0;exitX=0.5;exitY=0.5;exitDx=0;exitDy=0;exitPerimeter=0;" edge="1" parent="1" source="jhMQIJePz_0eJn743-Vq-16" target="jhMQIJePz_0eJn743-Vq-27">
          <mxGeometry width="160" relative="1" as="geometry">
            <mxPoint x="330" y="230" as="sourcePoint" />
            <mxPoint x="490" y="230" as="targetPoint" />
          </mxGeometry>
        </mxCell>
        <mxCell id="jhMQIJePz_0eJn743-Vq-35" value="" style="edgeStyle=none;html=1;endArrow=none;verticalAlign=bottom;entryX=0;entryY=0.5;entryDx=0;entryDy=0;exitX=0.5;exitY=0.5;exitDx=0;exitDy=0;exitPerimeter=0;" edge="1" parent="1" source="jhMQIJePz_0eJn743-Vq-1" target="jhMQIJePz_0eJn743-Vq-10">
          <mxGeometry width="160" relative="1" as="geometry">
            <mxPoint x="330" y="110" as="sourcePoint" />
            <mxPoint x="490" y="230" as="targetPoint" />
          </mxGeometry>
        </mxCell>
        <mxCell id="jhMQIJePz_0eJn743-Vq-36" value="" style="edgeStyle=none;html=1;endArrow=none;verticalAlign=bottom;exitX=1;exitY=0.5;exitDx=0;exitDy=0;entryX=0.5;entryY=0.5;entryDx=0;entryDy=0;entryPerimeter=0;" edge="1" parent="1" source="jhMQIJePz_0eJn743-Vq-11" target="jhMQIJePz_0eJn743-Vq-1">
          <mxGeometry width="160" relative="1" as="geometry">
            <mxPoint x="330" y="230" as="sourcePoint" />
            <mxPoint x="490" y="230" as="targetPoint" />
          </mxGeometry>
        </mxCell>
        <mxCell id="jhMQIJePz_0eJn743-Vq-37" value="" style="edgeStyle=none;html=1;endArrow=none;verticalAlign=bottom;exitX=1;exitY=0.5;exitDx=0;exitDy=0;entryX=0.5;entryY=0.5;entryDx=0;entryDy=0;entryPerimeter=0;" edge="1" parent="1" source="jhMQIJePz_0eJn743-Vq-12" target="jhMQIJePz_0eJn743-Vq-1">
          <mxGeometry width="160" relative="1" as="geometry">
            <mxPoint x="330" y="230" as="sourcePoint" />
            <mxPoint x="323" y="117" as="targetPoint" />
          </mxGeometry>
        </mxCell>
      </root>
    </mxGraphModel>
  </diagram>
</mxfile>
